#N canvas 1 23 1679 1001 10;
#X obj 102 405 lop~;
#X obj 218 607 hip~;
#X obj 140 525 *~ 0;
#X obj 215 735 *~ 0;
#X obj 353 944 *~ 0;
#X obj 212 757 outlet~;
#X obj 129 552 outlet~;
#X obj 352 975 outlet~;
#X obj 242 128 tgl 15 0 empty \$0-bpTGL empty 17 7 0 10 -262144 -1
-1 0 1;
#X obj 347 30 inlet~;
#X obj 724 42 inlet~;
#X obj 1003 -1 inlet~;
#X obj 116 128 tgl 15 0 empty \$0-lopTGL empty 17 7 0 10 -262144 -1
-1 0 1;
#X obj 174 128 tgl 15 0 empty \$0-hipTGL empty 17 7 0 10 -262144 -1
-1 0 1;
#X obj 546 36 inlet;
#X obj 903 17 inlet;
#X obj 1163 12 inlet;
#X obj 347 55 throw~ \$0-lopPre;
#X obj 17 379 catch~ \$0-lopPre;
#X obj 120 501 *~ 0;
#X obj 218 705 *~ 0;
#X obj 333 916 *~ 0;
#X obj 999 21 throw~ \$0-bpPre;
#X obj 264 782 catch~ \$0-bpPre;
#X obj 126 159 vsl 15 64 0 1 0 0 empty \$0-lopVolVSL empty 0 -9 0 10
-262144 -1 -1 0 1;
#X obj 106 159 vsl 15 64 20 22000 1 0 empty \$0-lopFreqVSL empty 0
-9 0 10 -262144 -1 -1 0 1;
#X obj 184 159 vsl 15 64 0 1 0 0 empty \$0-hipVolVSL empty 0 -9 0 10
-262144 -1 -1 0 1;
#X obj 164 159 vsl 15 64 20 22000 1 0 empty \$0-hipFreqVSL empty 0
-9 0 10 -262144 -1 -1 0 1;
#X obj 262 159 vsl 15 64 0 1 0 0 empty \$0-bpVolVSL empty 0 -9 0 10
-262144 -1 -1 0 1;
#X obj 222 159 vsl 15 64 20 22000 1 0 empty \$0-bpFreqVSL empty 0 -9
0 10 -262144 -1 -1 0 1;
#X obj 242 159 vsl 15 64 0 20 0 0 empty \$0-bpQVSL empty 0 -9 0 10
-262144 -1 -1 0 1;
#X obj 316 805 bp~, f 4;
#X obj 5 166 s \$0-lopToggle;
#X obj 2 192 s \$0-lopFreq;
#X obj 8 218 s \$0-lopVol;
#X obj 139 399 r \$0-lopToggle;
#X obj 153 462 r \$0-lopVol;
#X msg 155 485 \$1 50;
#X obj 155 507 line;
#X obj 124 333 r \$0-lopFreq;
#X msg 124 358 \$1 50;
#X obj 124 380 line;
#X obj 168 298 s \$0-hipVol;
#X obj 153 277 s \$0-hipFreq;
#X obj 145 255 s \$0-hipToggle;
#X obj 721 82 throw~ \$0-hipPre;
#X obj 135 584 catch~ \$0-hipPre;
#X msg 259 686 \$1 50;
#X obj 259 708 line;
#X msg 241 561 \$1 50;
#X obj 241 583 line;
#X obj 300 198 s \$0-bpQ;
#X obj 293 177 s \$0-bpFreq;
#X obj 285 155 s \$0-bpToggle;
#X obj 308 218 s \$0-bpVol;
#X msg 367 903 \$1 50;
#X obj 367 925 line;
#X msg 321 729 \$1 50;
#X obj 321 751 line;
#X msg 361 759 \$1 50;
#X obj 361 781 line;
#X obj 361 734 r \$0-bpQ;
#X obj 356 805 r \$0-bpToggle;
#X obj 365 880 r \$0-bpVol;
#X obj 321 704 r \$0-bpFreq;
#X obj 241 536 r \$0-hipFreq;
#X obj 257 663 r \$0-hipVol;
#X obj 251 610 r \$0-hipToggle;
#X obj 415 140 route on off frequency volume;
#X obj 412 165 t b;
#X obj 444 165 t b;
#X msg 444 187 0;
#X msg 412 187 1;
#X msg 395 217 set \$1;
#X obj 543 324 clip 0 1;
#X msg 559 344 set \$1;
#X obj 569 230 expr if (($f1 > 1 || $f1 < 0) \, 1 \, 0);
#X obj 569 251 route 1;
#X msg 569 271 Volume inputs range from 0 to 1 -- Input has been clipped
to this range.;
#X obj 546 188 route float;
#X msg 610 211 Volume inputs should be a real number.;
#X obj 395 239 s \$0-lopTGL;
#X obj 446 216 s \$0-lopToggle;
#X obj 560 364 s \$0-lopVolVSL;
#X obj 541 384 s \$0-lopVol;
#X msg 427 545 set \$1;
#X obj 437 452 route 1;
#X obj 414 389 route float;
#X msg 478 412 Frequency inputs should be a real number.;
#X obj 437 505 print Filter Box: Lo-Pass Inlet;
#X msg 437 472 Frequency inputs range from 20 to 22000 -- Input has
been clipped to this range.;
#X obj 437 431 expr if (($f1 > 22000 || $f1 < 20) \, 1 \, 0);
#X obj 411 525 clip 20 22000;
#X obj 569 304 print Filter Box: Lo-Pass inlet;
#X obj 428 565 s \$0-lopFreqVSL;
#X obj 409 585 s \$0-lopFreq;
#X msg 621 170 No parameter matches input. Acceptable parameters are
"on" "off" "frequency [real number]" and "volume [real number]".;
#X obj 904 47 route on off frequency volume;
#X obj 901 72 t b;
#X obj 933 72 t b;
#X msg 933 94 0;
#X msg 901 94 1;
#X msg 884 124 set \$1;
#X obj 1032 231 clip 0 1;
#X msg 1048 251 set \$1;
#X obj 1058 137 expr if (($f1 > 1 || $f1 < 0) \, 1 \, 0);
#X obj 1058 158 route 1;
#X msg 1058 178 Volume inputs range from 0 to 1 -- Input has been clipped
to this range.;
#X obj 1035 95 route float;
#X msg 1099 118 Volume inputs should be a real number.;
#X msg 956 452 set \$1;
#X obj 966 359 route 1;
#X obj 943 296 route float;
#X msg 1007 319 Frequency inputs should be a real number.;
#X msg 966 379 Frequency inputs range from 20 to 22000 -- Input has
been clipped to this range.;
#X obj 966 338 expr if (($f1 > 22000 || $f1 < 20) \, 1 \, 0);
#X obj 940 432 clip 20 22000;
#X msg 1111 83 No parameter matches input. Acceptable parameters are
"on" "off" "frequency [real number]" and "volume [real number]".;
#X obj 1058 211 print Filter Box: Hi-Pass inlet;
#X obj 966 412 print Filter Box: Hi-Pass Inlet;
#X obj 884 146 s \$0-hipTGL;
#X obj 935 123 s \$0-hipToggle;
#X obj 1049 271 s \$0-hipVolVSL;
#X obj 1030 291 s \$0-hipVol;
#X obj 957 472 s \$0-hipFreqVSL;
#X obj 938 492 s \$0-hipFreq;
#X obj 1088 507 t b;
#X obj 1120 507 t b;
#X msg 1120 529 0;
#X msg 1088 529 1;
#X msg 1071 559 set \$1;
#X obj 1242 898 clip 0 1;
#X msg 1258 918 set \$1;
#X obj 1268 804 expr if (($f1 > 1 || $f1 < 0) \, 1 \, 0);
#X obj 1268 825 route 1;
#X msg 1268 845 Volume inputs range from 0 to 1 -- Input has been clipped
to this range.;
#X obj 1245 762 route float;
#X msg 867 922 set \$1;
#X obj 877 829 route 1;
#X obj 854 766 route float;
#X msg 918 789 Frequency inputs should be a real number.;
#X msg 877 849 Frequency inputs range from 20 to 22000 -- Input has
been clipped to this range.;
#X obj 877 808 expr if (($f1 > 22000 || $f1 < 20) \, 1 \, 0);
#X obj 851 902 clip 20 22000;
#X obj 1091 482 route on off frequency q volume;
#X obj 1268 878 print Filter Box: Band-Pass inlet;
#X obj 877 882 print Filter Box: Band-Pass Inlet;
#X obj 1240 958 s \$0-bpVol;
#X obj 868 942 s \$0-bpFreqVSL;
#X obj 849 962 s \$0-bpFreq;
#X msg 1259 513 No parameter matches input. Acceptable parameters are
"on" "off" "frequency [real number]" "q [real number]" and "volume
[real number]".;
#X msg 1307 783 Volume inputs should be a real number.;
#X msg 1198 763 set \$1;
#X obj 1208 670 route 1;
#X obj 1185 607 route float;
#X obj 1208 723 print Filter Box: Band-Pass inlet;
#X msg 1247 628 Q inputs should be a real number.;
#X obj 1208 649 expr if (($f1 > 20 || $f1 < 0) \, 1 \, 0);
#X msg 1208 690 Q inputs range from 0 to 20 -- Input has been clipped
to this range.;
#X obj 1182 743 clip 0 20;
#X obj 1199 783 s \$0-bpQVSL;
#X obj 1180 803 s \$0-bpQ;
#X obj 1259 938 s \$0-bpVolVSL;
#X text 102 113 Lo-Pass;
#X text 160 113 Hi-Pass;
#X text 219 113 Band-Pass;
#X obj 1071 581 s \$0-bpTGL;
#X obj 1122 558 s \$0-bpToggle;
#X obj 86 500 *~ 1;
#X obj 184 703 *~ 1;
#X obj 299 914 *~ 1;
#X obj 83 428 route 0 1;
#X obj 83 450 t b;
#X msg 83 472 1;
#X obj 113 450 t b;
#X msg 113 472 0;
#X obj 195 635 route 0 1;
#X obj 195 657 t b;
#X msg 195 679 1;
#X obj 225 657 t b;
#X msg 225 679 0;
#X obj 301 832 route 0 1;
#X obj 301 854 t b;
#X msg 301 876 1;
#X obj 331 854 t b;
#X msg 331 876 0;
#X text 109 142 f;
#X text 129 142 v;
#X text 167 142 f;
#X text 187 142 v;
#X text 225 142 f;
#X text 245 142 q;
#X text 265 142 v;
#X connect 0 0 19 0;
#X connect 1 0 20 0;
#X connect 2 0 6 0;
#X connect 3 0 5 0;
#X connect 4 0 7 0;
#X connect 8 0 53 0;
#X connect 9 0 17 0;
#X connect 10 0 45 0;
#X connect 11 0 22 0;
#X connect 12 0 32 0;
#X connect 13 0 44 0;
#X connect 14 0 68 0;
#X connect 15 0 97 0;
#X connect 16 0 144 0;
#X connect 18 0 0 0;
#X connect 18 0 168 0;
#X connect 19 0 2 0;
#X connect 20 0 3 0;
#X connect 21 0 4 0;
#X connect 23 0 31 0;
#X connect 23 0 170 0;
#X connect 24 0 34 0;
#X connect 25 0 33 0;
#X connect 26 0 42 0;
#X connect 27 0 43 0;
#X connect 28 0 54 0;
#X connect 29 0 52 0;
#X connect 30 0 51 0;
#X connect 31 0 21 0;
#X connect 35 0 19 1;
#X connect 35 0 171 0;
#X connect 36 0 37 0;
#X connect 37 0 38 0;
#X connect 38 0 2 1;
#X connect 39 0 40 0;
#X connect 40 0 41 0;
#X connect 41 0 0 1;
#X connect 46 0 1 0;
#X connect 46 0 169 0;
#X connect 47 0 48 0;
#X connect 48 0 3 1;
#X connect 49 0 50 0;
#X connect 50 0 1 1;
#X connect 55 0 56 0;
#X connect 56 0 4 1;
#X connect 57 0 58 0;
#X connect 58 0 31 1;
#X connect 59 0 60 0;
#X connect 60 0 31 2;
#X connect 61 0 59 0;
#X connect 62 0 21 1;
#X connect 62 0 181 0;
#X connect 63 0 55 0;
#X connect 64 0 57 0;
#X connect 65 0 49 0;
#X connect 66 0 47 0;
#X connect 67 0 20 1;
#X connect 67 0 176 0;
#X connect 68 0 69 0;
#X connect 68 1 70 0;
#X connect 68 2 87 0;
#X connect 68 3 79 0;
#X connect 68 4 96 0;
#X connect 69 0 72 0;
#X connect 70 0 71 0;
#X connect 71 0 73 0;
#X connect 71 0 82 0;
#X connect 72 0 73 0;
#X connect 72 0 82 0;
#X connect 73 0 81 0;
#X connect 74 0 75 0;
#X connect 74 0 84 0;
#X connect 75 0 83 0;
#X connect 76 0 77 0;
#X connect 77 0 78 0;
#X connect 78 0 93 0;
#X connect 79 0 74 0;
#X connect 79 0 76 0;
#X connect 79 1 80 0;
#X connect 80 0 93 0;
#X connect 85 0 94 0;
#X connect 86 0 90 0;
#X connect 87 0 91 0;
#X connect 87 0 92 0;
#X connect 87 1 88 0;
#X connect 88 0 89 0;
#X connect 90 0 89 0;
#X connect 91 0 86 0;
#X connect 92 0 85 0;
#X connect 92 0 95 0;
#X connect 96 0 93 0;
#X connect 97 0 98 0;
#X connect 97 1 99 0;
#X connect 97 2 112 0;
#X connect 97 3 108 0;
#X connect 97 4 117 0;
#X connect 98 0 101 0;
#X connect 99 0 100 0;
#X connect 100 0 102 0;
#X connect 100 0 121 0;
#X connect 101 0 102 0;
#X connect 101 0 121 0;
#X connect 102 0 120 0;
#X connect 103 0 104 0;
#X connect 103 0 123 0;
#X connect 104 0 122 0;
#X connect 105 0 106 0;
#X connect 106 0 107 0;
#X connect 107 0 118 0;
#X connect 108 0 103 0;
#X connect 108 0 105 0;
#X connect 108 1 109 0;
#X connect 109 0 118 0;
#X connect 110 0 124 0;
#X connect 111 0 114 0;
#X connect 112 0 115 0;
#X connect 112 0 116 0;
#X connect 112 1 113 0;
#X connect 113 0 119 0;
#X connect 114 0 119 0;
#X connect 115 0 111 0;
#X connect 116 0 110 0;
#X connect 116 0 125 0;
#X connect 117 0 118 0;
#X connect 126 0 129 0;
#X connect 127 0 128 0;
#X connect 128 0 130 0;
#X connect 128 0 167 0;
#X connect 129 0 130 0;
#X connect 129 0 167 0;
#X connect 130 0 166 0;
#X connect 131 0 132 0;
#X connect 131 0 147 0;
#X connect 132 0 162 0;
#X connect 133 0 134 0;
#X connect 134 0 135 0;
#X connect 135 0 145 0;
#X connect 136 0 131 0;
#X connect 136 0 133 0;
#X connect 136 1 151 0;
#X connect 137 0 148 0;
#X connect 138 0 141 0;
#X connect 139 0 142 0;
#X connect 139 0 143 0;
#X connect 139 1 140 0;
#X connect 140 0 146 0;
#X connect 141 0 146 0;
#X connect 142 0 138 0;
#X connect 143 0 137 0;
#X connect 143 0 149 0;
#X connect 144 0 126 0;
#X connect 144 1 127 0;
#X connect 144 2 139 0;
#X connect 144 3 154 0;
#X connect 144 4 136 0;
#X connect 144 5 150 0;
#X connect 152 0 160 0;
#X connect 153 0 158 0;
#X connect 154 0 157 0;
#X connect 154 0 159 0;
#X connect 154 1 156 0;
#X connect 157 0 153 0;
#X connect 158 0 155 0;
#X connect 159 0 152 0;
#X connect 159 0 161 0;
#X connect 168 0 2 0;
#X connect 169 0 3 0;
#X connect 170 0 4 0;
#X connect 171 0 172 0;
#X connect 171 1 174 0;
#X connect 172 0 173 0;
#X connect 173 0 168 1;
#X connect 174 0 175 0;
#X connect 175 0 168 1;
#X connect 176 0 177 0;
#X connect 176 1 179 0;
#X connect 177 0 178 0;
#X connect 178 0 169 1;
#X connect 179 0 180 0;
#X connect 180 0 169 1;
#X connect 181 0 182 0;
#X connect 181 1 184 0;
#X connect 182 0 183 0;
#X connect 183 0 170 1;
#X connect 184 0 185 0;
#X connect 185 0 170 1;
#X coords 0 -1 1 1 180 130 1 100 100;
